<?xml version="1.0" encoding="utf-8"?>
<!-- Generator: Adobe Illustrator 23.0.0, SVG Export Plug-In . SVG Version: 6.00 Build 0)  -->
<svg version="1.1" id="Layer_1" xmlns="http://www.w3.org/2000/svg" xmlns:xlink="http://www.w3.org/1999/xlink" x="0px" y="0px"
	 viewBox="0 0 38 38" style="enable-background:new 0 0 38 38;" xml:space="preserve">
<style type="text/css">
	.st0{fill:#E8E8E9;}
	.st1{fill:#090909;}
	.st2{fill:#FFFFFF;}
	.st3{fill:#222222;}
	.st4{fill:#E9EAEB;}
</style>
<g>
	<circle class="st0" cx="18.6" cy="19" r="17"/>
</g>
<g>
	<g>
		<path class="st0" d="M32.7,2H29v4.4h7.4V5.7C36.4,3.6,34.8,2,32.7,2z"/>
	</g>
	<g>
		<path class="st1" d="M37,7h-5.7V5.9h4.6V5.7c0-1.7-1.4-3.1-3.2-3.1H29V1.4h3.7c2.4,0,4.3,1.9,4.3,4.3V7z"/>
	</g>
	<g>
		<path class="st2" d="M6,5.7C6,3.6,7.7,2,9.7,2h23c-2,0-3.7,1.6-3.7,3.7v26.6c0,2-1.7,3.7-3.7,3.7H6V5.7z"/>
		<path class="st1" d="M25.3,36.6H5.5V5.7c0-2.3,1.9-4.3,4.3-4.3h23v1.1c-1.7,0-3.2,1.4-3.2,3.1v26.6C29.6,34.7,27.7,36.6,25.3,36.6
			z M6.6,35.5h18.8c1.7,0,3.2-1.4,3.2-3.1V5.7c0-1.2,0.5-2.4,1.4-3.1H9.7C8,2.5,6.6,3.9,6.6,5.7V35.5z"/>
	</g>
	<g>
		<g>
			<rect x="10.5" y="8.8" class="st1" width="13.4" height="1.1"/>
		</g>
		<g>
			<rect x="10.5" y="11.8" class="st1" width="13.4" height="1.1"/>
		</g>
		<g>
			<rect x="10.5" y="14.7" class="st1" width="13.4" height="1.1"/>
		</g>
		<g>
			<rect x="10.5" y="17.7" class="st1" width="13.4" height="1.1"/>
		</g>
		<g>
			<rect x="10.5" y="20.7" class="st1" width="13.4" height="1.1"/>
		</g>
		<g>
			<rect x="10.5" y="23.6" class="st1" width="8.2" height="1.1"/>
		</g>
	</g>
	<g>
		<path class="st3" d="M1.6,32.3c0,2,1.7,3.7,3.7,3.7h20c-2.1,0-3.7-1.7-3.7-3.7H1.6z"/>
		<path class="st1" d="M25.3,36.6h-20c-2.4,0-4.3-1.9-4.3-4.3v-0.6h21.1v0.6c0,1.7,1.4,3.1,3.2,3.1V36.6z M2.2,32.9
			c0.3,1.5,1.6,2.6,3.1,2.6h17.2c-0.7-0.7-1.2-1.6-1.4-2.6H2.2z"/>
	</g>
</g>
<g>
	<g>
		<polygon class="st4" points="34.6,35.5 36.2,33.8 28.9,26.6 27.3,28.1 		"/>
	</g>
	<g>
		<path d="M37,33.8l-2.4,2.4l-8.1-8.1l2.4-2.4L37,33.8z M34.6,34.7l0.8-0.8l-6.5-6.5L28.1,28L34.6,34.7z"/>
	</g>
</g>
<g>
	<g>
		<ellipse class="st3" cx="22.8" cy="22.5" rx="7.2" ry="7.2"/>
	</g>
	<g>
		<path d="M30.6,22.5c0,4.3-3.5,7.8-7.8,7.8S15,26.9,15,22.5s3.5-7.8,7.8-7.8S30.6,18.3,30.6,22.5z M16.2,22.5c0,3.6,3,6.6,6.6,6.6
			s6.6-3,6.6-6.6s-3-6.6-6.6-6.6S16.2,18.9,16.2,22.5z"/>
	</g>
</g>
<g>
	<g>
		<ellipse class="st2" cx="22.8" cy="22.5" rx="5" ry="5"/>
		<path d="M28.4,22.5c0,1.5-0.6,2.9-1.6,3.9c-1.1,1.1-2.5,1.6-4,1.6c-3.1,0-5.6-2.5-5.6-5.6s2.5-5.6,5.6-5.6S28.4,19.5,28.4,22.5
			L28.4,22.5z M18.4,22.5c0,2.4,2,4.4,4.4,4.4c1.2,0,2.3-0.5,3.1-1.3c0.8-0.8,1.3-1.9,1.3-3.1l0,0c0-2.4-2-4.4-4.4-4.4
			S18.4,20.1,18.4,22.5z"/>
	</g>
</g>
<g>
	<g>
		<g>
			<path d="M22.1,19.8c-1.3,0.3-2.3,1.5-2.4,2.8h-1c0.1-1.8,1.4-3.4,3.1-3.8L22.1,19.8z"/>
		</g>
	</g>
	<g>
		<g>
			<path d="M23.8,18.8l-0.2,1c-0.2-0.1-0.5-0.1-0.7-0.1v-1C23.2,18.5,23.5,18.6,23.8,18.8z"/>
		</g>
	</g>
</g>
</svg>
