<?xml version="1.0" encoding="utf-8"?>
<!-- Generator: Adobe Illustrator 21.0.0, SVG Export Plug-In . SVG Version: 6.00 Build 0)  -->
<svg version="1.1" id="Layer_1" xmlns="http://www.w3.org/2000/svg" xmlns:xlink="http://www.w3.org/1999/xlink" x="0px" y="0px"
	 viewBox="0 0 38 38" style="enable-background:new 0 0 38 38;" xml:space="preserve">
<style type="text/css">
	.st0{fill:#FFFFFF;}
	.st1{fill:#222222;}
	.st2{fill:#BBBEC1;}
	.st3{fill:#E6E9EA;}
</style>
<g>
	<g>
		<g>
			<path class="st0" d="M23.8,31.2c-1.5,0.6-3.2,1-5,1c-7.2,0-13-5.8-13-13c0-2.8,0.9-5.5,2.4-7.6l4.8,4.2c-0.6,1-0.9,2.1-0.9,3.4
				c0,3.7,3,6.7,6.7,6.7c0.7,0,1.3-0.1,1.9-0.3L23.8,31.2z"/>
			<path d="M18.9,32.8c-7.5,0-13.6-6.1-13.6-13.6c0-2.9,0.9-5.6,2.5-7.9l0.4-0.5l5.6,4.9l-0.2,0.4c-0.5,0.9-0.8,2-0.8,3.1
				c0,3.4,2.7,6.1,6.1,6.1c0.6,0,1.2-0.1,1.8-0.3l0.5-0.1l3.5,6.6l-0.6,0.2C22.4,32.4,20.7,32.8,18.9,32.8z M8.4,12.4
				c-1.3,2-2,4.3-2,6.7c0,6.9,5.6,12.5,12.5,12.5c1.4,0,2.8-0.2,4.2-0.7l-2.5-4.7c-0.5,0.1-1.1,0.2-1.7,0.2c-4,0-7.3-3.3-7.3-7.3
				c0-1.1,0.3-2.3,0.8-3.3L8.4,12.4z"/>
		</g>
		<g>
			<path class="st1" d="M31.9,19.2c0,4.5-2.3,8.5-5.8,10.8l-3-5.7c1.5-1.2,2.4-3.1,2.4-5.2c0-1.4-0.4-2.7-1.1-3.7l4.5-4.5
				C30.8,13.1,31.9,16,31.9,19.2z"/>
			<path d="M25.9,30.8l-3.5-6.6l0.4-0.3c1.4-1.2,2.2-2.9,2.2-4.7c0-1.2-0.4-2.4-1-3.4l-0.3-0.4l5.3-5.3l0.4,0.5
				c2,2.4,3.1,5.5,3.1,8.6c0,4.5-2.2,8.8-6,11.3L25.9,30.8z M23.8,24.4l2.5,4.7c3.1-2.3,5-6,5-10c0-2.7-0.9-5.3-2.4-7.4l-3.8,3.8
				c0.6,1.1,1,2.4,1,3.6C26.1,21.2,25.3,23.1,23.8,24.4z"/>
		</g>
		<g>
			<path class="st0" d="M26.9,9.2l-4.7,4.5l0,0c-0.6-0.4-2-0.9-2.9-1V6.2C22.1,6.5,25,7.7,26.9,9.2L26.9,9.2z"/>
			<path d="M22.2,14.5l-0.4-0.3c-0.5-0.3-1.7-0.8-2.7-0.9l-0.5-0.1V5.6l0.6,0.1c2.9,0.3,6,1.5,7.9,3.1l0.5,0.4L22.2,14.5z
				 M19.8,12.2c0.7,0.2,1.6,0.5,2.3,0.8L26,9.2c-1.6-1.2-3.9-2-6.2-2.4V12.2z"/>
		</g>
		<g>
			<path class="st0" d="M16.4,6.2v6.4l0,0c0,0.2-1.4,0.7-2.2,1.3l-5-4.2C11.2,7.7,14.5,6.5,16.4,6.2L16.4,6.2z"/>
			<path d="M14.2,14.5L8.3,9.6l0.5-0.4c2-1.9,5.4-3.3,7.5-3.6L17,5.5v7c0,0.5-0.4,0.6-1.1,1c-0.4,0.2-1,0.5-1.3,0.7L14.2,14.5z
				 M10,9.6l4.2,3.5c0.4-0.2,0.8-0.4,1.1-0.6c0.1-0.1,0.3-0.2,0.4-0.2V6.9C14.2,7.2,11.8,8.2,10,9.6z"/>
		</g>
	</g>
	<g>
		<path class="st2" d="M32.8,27.8l-0.9-0.7c0.3-0.4,0.6-0.9,0.9-1.3l1,0.6C33.4,26.9,33.1,27.4,32.8,27.8z"/>
	</g>
	<g>
		<path class="st2" d="M34.8,23.9l-1.1-0.4c0.2-0.6,0.4-1.2,0.5-1.7l1.1,0.2C35.1,22.6,35,23.3,34.8,23.9z"/>
	</g>
	<g>
		<path class="st2" d="M35.6,19.3h-1.1c0-0.2,0-0.3,0-0.5c0-0.5,0-0.9-0.1-1.4l1.1-0.1c0,0.5,0.1,1,0.1,1.5
			C35.6,19,35.6,19.1,35.6,19.3z"/>
	</g>
	<g>
		<path class="st2" d="M34.1,15.5C33,10.8,29.8,7,25.4,5.1L25.8,4c4.8,2,8.3,6.1,9.4,11.2L34.1,15.5z"/>
	</g>
	<g>
		<path class="st2" d="M5.2,12.1l-1-0.6c0.3-0.5,0.6-1,1-1.4l0.9,0.7C5.8,11.2,5.5,11.6,5.2,12.1z"/>
	</g>
	<g>
		<path class="st2" d="M3.8,16.1l-1.1-0.2C2.9,15.2,3,14.6,3.2,14l1.1,0.4C4.1,14.9,4,15.5,3.8,16.1z"/>
	</g>
	<g>
		<path class="st2" d="M2.5,20.6c0-0.5-0.1-1-0.1-1.5c0-0.2,0-0.4,0-0.6h1.1c0,0.2,0,0.3,0,0.5c0,0.5,0,0.9,0.1,1.4L2.5,20.6z"/>
	</g>
	<g>
		<path class="st2" d="M12.2,33.8c-4.8-2-8.3-6.2-9.4-11.2l1.1-0.3C5,27,8.2,30.8,12.6,32.7L12.2,33.8z"/>
	</g>
	<g>
		<circle class="st3" cx="18.8" cy="18.8" r="4.3"/>
	</g>
	<g>
		<rect x="21.2" y="1" class="st2" width="1.1" height="3.7"/>
	</g>
	<g>
		<rect x="19.9" y="2.3" class="st2" width="3.7" height="1.1"/>
	</g>
	<g>
		<rect x="21.2" y="1" class="st2" width="1.1" height="3.7"/>
	</g>
	<g>
		<rect x="19.9" y="2.3" class="st2" width="3.7" height="1.1"/>
	</g>
	<g>
		<rect x="15.8" y="33.3" class="st2" width="1.1" height="3.7"/>
	</g>
	<g>
		<rect x="14.5" y="34.6" class="st2" width="3.7" height="1.1"/>
	</g>
	<g>
		<rect x="15.8" y="33.3" class="st2" width="1.1" height="3.7"/>
	</g>
	<g>
		<rect x="14.5" y="34.6" class="st2" width="3.7" height="1.1"/>
	</g>
</g>
</svg>
